<?xml version="1.0" encoding="UTF-8" standalone="no"?><!-- Created with Inkscape (http://www.inkscape.org/) --><svg viewBox="0 0 720 720" version="1.1" id="uq-tess-logo-2" xml:space="preserve" xmlns:xlink="http://www.w3.org/1999/xlink" xmlns="http://www.w3.org/2000/svg"><path d="m 353.25,707.62545 c -3.74437,-1.66668 -6.08905,-2.64517 -25.59375,-10.68082 -10.97238,-4.52046 -17.87517,-7.37556 -25.875,-10.70229 -2.16563,-0.90057 -9.50625,-3.93724 -16.3125,-6.74814 -6.80625,-2.8109 -14.14687,-5.85546 -16.3125,-6.76568 -5.16618,-2.17139 -20.66754,-8.59382 -26.71875,-11.06996 -10.27914,-4.2062 -14.1058,-5.78352 -22.78125,-9.39032 -4.95,-2.05794 -10.77188,-4.47575 -12.9375,-5.3729 -2.16563,-0.89715 -6.34219,-2.6299 -9.28125,-3.85056 -2.93906,-1.22066 -10.40625,-4.31166 -16.59375,-6.86889 -6.1875,-2.55723 -15.17344,-6.28894 -19.96875,-8.29268 -4.79531,-2.00375 -10.74375,-4.47108 -13.21875,-5.48297 -11.96117,-4.89024 -17.37437,-7.13113 -23.0625,-9.54711 -3.40313,-1.44545 -6.64082,-2.76721 -7.19488,-2.93723 -0.55405,-0.17003 -0.92741,-0.54902 -0.82968,-0.84221 0.0977,-0.29318 0.30905,-0.4508 0.46961,-0.35025 0.16056,0.10054 0.91361,-0.21826 1.67344,-0.70845 0.75983,-0.4902 2.14088,-1.16621 3.06901,-1.50225 0.92813,-0.33605 4.21875,-1.66985 7.3125,-2.964 3.09375,-1.29416 8.28281,-3.43874 11.53125,-4.76574 3.24844,-1.32699 9.82969,-4.04884 14.625,-6.04855 4.79531,-1.9997 13.78125,-5.72811 19.96875,-8.28534 6.1875,-2.55723 13.65469,-5.6537 16.59375,-6.88105 2.93906,-1.22734 7.36875,-3.06757 9.84375,-4.0894 2.475,-1.02182 6.77813,-2.80178 9.5625,-3.95545 2.78437,-1.15368 7.0875,-2.93192 9.5625,-3.95165 2.475,-1.01973 7.66406,-3.16131 11.53125,-4.75906 3.86719,-1.59775 9.18281,-3.79162 11.8125,-4.87526 2.62969,-1.08364 7.05938,-2.92934 9.84375,-4.10154 2.78437,-1.17221 7.97344,-3.31901 11.53125,-4.77068 3.55781,-1.45166 7.86094,-3.23142 9.5625,-3.95501 9.17263,-3.90065 11.93916,-4.89457 12.37461,-4.44576 0.26255,0.2706 0.9674,1.75762 1.56633,3.3045 0.59893,1.54687 3.3072,8.12813 6.01838,14.625 2.71117,6.49687 5.75961,13.8375 6.77431,16.3125 1.0147,2.475 3.15956,7.66406 4.76637,11.53125 1.60681,3.86719 3.75568,9.05625 4.77527,11.53125 4.97322,12.07219 10.03492,24.30302 12.68703,30.65625 1.61432,3.86719 3.50521,8.42344 4.20198,10.125 5.89102,14.38638 7.63853,18.60994 15.70966,37.96875 2.62325,6.29194 7.84331,18.92674 11.32932,27.42187 1.6523,4.02652 2.65739,7.15881 2.29175,7.14208 -0.35819,-0.0164 -2.29657,-0.76215 -4.30751,-1.65725 z m 8.37796,-0.98483 c 0.58348,-1.46953 2.37968,-5.83593 3.99155,-9.70312 1.61187,-3.86719 3.50486,-8.42344 4.20664,-10.125 2.98368,-7.23429 6.78546,-16.39762 8.86828,-21.375 1.22988,-2.93906 3.32346,-8.00156 4.6524,-11.25 1.32894,-3.24844 3.4753,-8.4375 4.76968,-11.53125 1.29439,-3.09375 3.19385,-7.65 4.22103,-10.125 1.02717,-2.475 2.92311,-7.03125 4.21319,-10.125 1.29008,-3.09375 3.95531,-9.54844 5.92274,-14.34375 1.96743,-4.79531 5.00579,-12.13594 6.75192,-16.3125 3.52049,-8.42068 10.0838,-24.27548 12.92342,-31.21875 5.05501,-12.36024 8.9171,-21.4248 9.31495,-21.8628 0.3916,-0.43112 6.53996,1.93923 23.87999,9.20635 7.67533,3.21669 21.37093,8.90394 26.57812,11.03686 2.55235,1.04546 6.72891,2.76546 9.28125,3.82222 2.55235,1.05675 6.79219,2.80539 9.42188,3.88585 2.62969,1.08046 7.3125,3.0254 10.40625,4.32208 3.09375,1.29668 8.28281,3.44266 11.53125,4.76885 3.24844,1.32619 11.22188,4.62464 17.71875,7.3299 6.49687,2.70527 13.20469,5.48545 14.90625,6.17819 1.70156,0.69274 8.40938,3.47292 14.90625,6.17819 6.49687,2.70526 14.47031,6.0047 17.71875,7.3321 3.24844,1.3274 7.80469,3.19614 10.125,4.15277 2.32031,0.95663 4.28203,1.7402 4.35937,1.74126 0.61775,0.008 -0.0683,1.05846 -0.84375,1.2913 -0.5414,0.16256 -3.51562,1.35742 -6.60937,2.65524 -3.09375,1.29782 -8.28281,3.45253 -11.53125,4.78826 -3.24844,1.33572 -8.4375,3.48516 -11.53125,4.77654 -3.09375,1.29138 -7.65,3.18434 -10.125,4.20658 -2.475,1.02224 -7.66406,3.18198 -11.53125,4.79943 -3.86719,1.61744 -9.11953,3.7944 -11.67188,4.83769 -11.03028,4.50871 -14.40098,5.89963 -22.64062,9.3426 -4.79531,2.00374 -13.78125,5.73545 -19.96875,8.29268 -6.1875,2.55723 -13.52813,5.60206 -16.3125,6.76629 -8.91681,3.72839 -21.80113,9.07536 -26.4375,10.97151 -7.0332,2.8764 -22.91731,9.44305 -30.65625,12.67361 -3.86719,1.61432 -8.42344,3.50521 -10.125,4.20198 -14.57768,5.96936 -24.6951,10.15788 -37.96875,15.71873 -9.85033,4.12669 -12.93466,5.36699 -13.34643,5.36699 -0.23663,0 0.0472,-1.20234 0.63064,-2.67188 z m -4.33248,-8.41383 c -0.96645,-2.41067 -2.92877,-7.16742 -4.36069,-10.57054 -2.41842,-5.74762 -4.96667,-11.9192 -9.52253,-23.0625 -1.01189,-2.475 -3.47922,-8.42344 -5.48297,-13.21875 -2.00374,-4.79531 -5.73179,-13.78125 -8.28455,-19.96875 -2.55276,-6.1875 -5.39312,-12.9827 -6.31192,-15.10045 -0.91879,-2.11775 -2.01127,-4.77556 -2.42774,-5.90625 -0.41646,-1.13069 -1.81307,-4.58705 -3.10358,-7.6808 -1.2905,-3.09375 -3.18679,-7.65 -4.21396,-10.125 -1.02718,-2.475 -2.92774,-7.03125 -4.22346,-10.125 -1.29572,-3.09375 -3.44158,-8.28281 -4.76858,-11.53125 -3.04395,-7.45148 -9.27507,-22.45536 -11.87681,-28.59812 -1.09297,-2.58053 -1.86613,-4.98522 -1.71813,-5.34375 0.148,-0.35853 2.25452,-1.46319 4.68114,-2.4548 2.42663,-0.9916 8.46205,-3.48994 13.41205,-5.55185 8.89602,-3.70563 13.46355,-5.58892 22.78125,-9.39316 2.62969,-1.07366 7.94531,-3.27536 11.8125,-4.89266 3.86719,-1.61731 8.9187,-3.71549 11.22558,-4.66262 l 4.19433,-1.72206 2.83692,0.98634 c 1.56031,0.54249 5.11504,1.95913 7.89942,3.14809 5.26354,2.24761 11.21936,4.7199 22.21875,9.22312 3.55781,1.45659 7.86094,3.2392 9.5625,3.96136 1.70156,0.72216 8.15625,3.39463 14.34375,5.93882 6.1875,2.54418 11.47441,4.83147 11.7487,5.08286 0.28214,0.25859 -0.79216,3.587 -2.47388,7.66463 -1.63491,3.96415 -4.86196,11.7638 -7.17122,17.33255 -2.30925,5.56875 -5.02579,12.15 -6.03676,14.625 -1.01097,2.475 -3.47755,8.42344 -5.4813,13.21875 -2.00374,4.79531 -5.73179,13.78125 -8.28455,19.96875 -2.55276,6.1875 -5.35253,12.89531 -6.2217,14.90625 -0.86917,2.01094 -2.07377,4.92187 -2.67687,6.46875 -0.60311,1.54687 -2.73928,6.73594 -4.74705,11.53125 -2.00778,4.79531 -5.73912,13.78125 -8.29188,19.96875 -2.55276,6.1875 -5.35253,12.89531 -6.2217,14.90625 -0.86917,2.01094 -2.07548,4.92187 -2.68067,6.46875 -2.56289,6.55071 -7.46988,17.98376 -7.90546,18.41934 -0.25945,0.25945 -1.26247,-1.50063 -2.22893,-3.9113 z m -244.6736,-94.52367 c -0.65748,-1.46953 -1.86249,-4.31718 -2.67779,-6.32812 -3.21516,-7.93022 -7.07138,-17.24944 -12.336171,-29.8125 -1.750268,-4.17656 -4.79027,-11.51719 -6.75556,-16.3125 -1.96529,-4.79531 -5.006983,-12.13594 -6.759316,-16.3125 -1.752334,-4.17656 -3.514291,-8.47969 -3.915461,-9.5625 -0.401169,-1.08281 -1.500619,-3.74063 -2.443221,-5.90625 -0.942602,-2.16562 -2.59763,-6.08906 -3.67784,-8.71875 -4.153842,-10.11221 -7.847887,-19.04168 -9.889814,-23.90625 -1.168754,-2.78438 -2.913795,-6.96094 -3.877869,-9.28125 -0.964075,-2.32031 -3.436637,-8.26875 -5.494583,-13.21875 -2.057946,-4.95 -4.59729,-11.08828 -5.642987,-13.64063 -2.025283,-4.94332 -3.980509,-9.67166 -8.664358,-20.95312 -1.605584,-3.86719 -3.492081,-8.42344 -4.192216,-10.125 -0.700135,-1.70156 -3.486369,-8.40938 -6.19163,-14.90625 C 27.397802,398.22187 24.098063,390.24844 22.77031,387 c -1.327752,-3.24844 -3.59808,-8.69063 -5.045172,-12.09375 -1.447093,-3.40313 -3.021694,-7.33868 -3.499113,-8.74567 l -0.868036,-2.55817 2.840025,-6.72308 c 3.619429,-8.56813 8.171975,-19.51326 10.517353,-25.28558 1.005628,-2.475 3.153643,-7.66406 4.773367,-11.53125 1.619723,-3.86719 3.769701,-9.05625 4.777728,-11.53125 1.728562,-4.24412 7.331399,-17.73021 10.983538,-26.4375 2.736683,-6.52469 9.00968,-21.6317 11.036232,-26.57813 2.821875,-6.88764 5.450059,-13.23941 8.087948,-19.54687 3.05659,-7.30861 10.522586,-25.2914 13.836992,-33.32813 4.208098,-10.20374 5.84833,-14.16169 8.100508,-19.54687 3.804918,-9.09794 10.079567,-24.22965 14.34495,-34.59375 1.46423,-3.55781 3.24135,-7.86094 3.94914,-9.5625 0.7078,-1.70156 2.79857,-6.74063 4.64616,-11.19792 3.78532,-9.132 2.92028,-8.28585 12.3927,-12.12213 3.30639,-1.33907 10.06162,-4.12061 15.01162,-6.1812 4.95,-2.0606 11.15156,-4.63447 13.78125,-5.71973 2.62969,-1.08526 6.80625,-2.82437 9.28125,-3.864687 2.475,-1.040321 6.65156,-2.775819 9.28125,-3.856661 5.30759,-2.181502 16.43338,-6.787742 23.34375,-9.664653 11.54821,-4.807729 15.96459,-6.631615 26.4375,-10.918216 6.1875,-2.532567 12.67545,-5.223048 14.41768,-5.978846 3.01604,-1.308397 7.64545,-3.215938 17.64482,-7.270519 4.29321,-1.740826 18.03886,-7.456777 26.4375,-10.993687 4.88969,-2.059193 20.40765,-8.490905 26.4375,-10.957522 7.67742,-3.140588 23.26879,-9.599706 31.21875,-12.933157 4.17656,-1.75125 8.5302,-3.527117 9.67476,-3.946371 1.14455,-0.419254 4.46851,-1.813479 7.38657,-3.098279 l 5.30557,-2.335999 6.95718,2.897642 c 3.82644,1.593703 8.85561,3.679177 11.17592,4.634388 2.32031,0.955211 6.49687,2.690247 9.28125,3.855637 2.78437,1.16539 7.21406,3.005506 9.84375,4.089148 14.20545,5.853782 19.3216,7.971626 23.90625,9.896055 2.78437,1.168754 7.0875,2.959397 9.5625,3.979207 2.475,1.01981 6.77812,2.81096 9.5625,3.980334 2.78437,1.169374 10.125,4.203607 16.3125,6.742739 6.1875,2.539131 13.52812,5.565944 16.3125,6.726249 13.60775,5.670622 22.34733,9.290238 26.4375,10.949452 4.16467,1.689435 17.12947,7.072116 26.4375,10.976226 6.73746,2.825927 21.66279,9.008062 27.84375,11.533001 3.24844,1.326996 8.4375,3.474739 11.53125,4.772759 3.09375,1.29802 7.65,3.19436 10.125,4.2141 2.475,1.01973 6.71484,2.76836 9.42187,3.88585 2.70704,1.11748 7.01016,2.8842 9.5625,3.92604 10.34045,4.22085 10.74621,4.46828 11.74666,7.16296 0.50519,1.36072 1.98584,5.00529 3.29033,8.09904 1.30449,3.09375 3.45415,8.28281 4.77702,11.53125 2.33949,5.74484 8.21194,19.88496 11.56362,27.84375 2.29933,5.45992 8.74016,21.0125 10.94862,26.4375 1.00755,2.475 4.04314,9.81562 6.74577,16.3125 8.20889,19.7335 9.2219,22.17838 12.93501,31.21875 1.96956,4.79531 4.63654,11.25 5.92662,14.34375 5.30134,12.71319 10.34258,24.86396 13.82754,33.32812 3.71186,9.01527 5.77075,13.98364 8.10023,19.54688 1.29543,3.09375 3.18678,7.65 4.203,10.125 1.01622,2.475 4.05838,9.81562 6.76036,16.3125 6.64202,15.97064 9.8471,23.91355 9.8471,24.40331 0,0.22454 -1.45547,0.93498 -3.23438,1.57875 -1.7789,0.64377 -5.76562,2.23823 -8.85937,3.54323 -3.09375,1.30501 -8.28281,3.45846 -11.53125,4.78546 -6.18096,2.52494 -21.10629,8.70707 -27.84375,11.533 -8.1461,3.41676 -22.09909,9.21679 -26.4375,10.98965 -2.475,1.01138 -7.66406,3.15354 -11.53125,4.76035 -3.86719,1.60681 -9.05625,3.74977 -11.53125,4.76214 -2.475,1.01237 -7.03125,2.90128 -10.125,4.19758 -3.09375,1.2963 -9.54844,3.96837 -14.34375,5.93793 -4.79531,1.96956 -11.25,4.63866 -14.34375,5.93133 -3.09375,1.29266 -8.28281,3.43602 -11.53125,4.76302 -6.18096,2.52494 -21.10629,8.70707 -27.84375,11.533 -6.52469,2.73668 -21.6317,9.00968 -26.57813,11.03623 -2.55234,1.0457 -6.7289,2.75487 -9.28125,3.79816 -2.55234,1.04329 -7.80468,3.22025 -11.67187,4.83769 -12.53344,5.24209 -16.46086,6.80456 -16.64386,6.62156 -0.0988,-0.0988 -1.30321,-2.95449 -2.67649,-6.346 -2.2296,-5.50633 -6.16954,-15.02114 -11.92854,-28.80702 -1.06624,-2.55234 -2.80183,-6.7289 -3.85687,-9.28125 -1.05505,-2.55234 -2.92375,-7.04531 -4.15267,-9.98437 -4.32867,-10.35234 -5.29379,-13.04704 -4.81691,-13.44929 0.26487,-0.22342 1.49409,-0.82594 2.73159,-1.33894 1.2375,-0.513 6.3,-2.61493 11.25,-4.67098 4.95,-2.05604 11.15156,-4.61867 13.78125,-5.69473 10.33022,-4.2271 14.09539,-5.77828 22.21875,-9.15374 4.64062,-1.9283 10.96211,-4.57163 14.04775,-5.87408 l 5.61025,-2.36808 2.99052,-7.27196 c 1.64479,-3.99957 3.59787,-8.7907 4.34018,-10.64695 0.7423,-1.85625 2.51975,-6.15938 3.94987,-9.5625 1.43012,-3.40313 3.31698,-7.95937 4.19302,-10.125 0.87604,-2.16563 2.91214,-7.10156 4.52466,-10.96875 1.61252,-3.86719 3.63777,-8.80312 4.50054,-10.96875 2.68209,-6.73226 5.3987,-12.34208 6.36068,-13.13486 0.79139,-0.6522 1.62152,-0.46717 5.85853,1.30582 2.71508,1.13613 6.70838,2.79046 8.874,3.6763 2.16562,0.88583 6.72188,2.77976 10.125,4.20873 11.32935,4.75716 29.52735,12.30993 37.96875,15.75826 3.24844,1.327 8.4375,3.47474 11.53125,4.77276 3.09375,1.29802 7.65,3.19436 10.125,4.2141 2.475,1.01973 6.65156,2.74352 9.28125,3.83064 2.62969,1.08712 6.93281,2.857 9.5625,3.93306 2.62969,1.07606 8.70469,3.5959 13.5,5.59965 7.75775,3.24161 20.56846,8.5441 36.5625,15.1336 2.93906,1.21089 6.4263,2.70091 7.74942,3.31115 1.32312,0.61025 2.61926,1.10954 2.88032,1.10954 0.26105,0 -1.04237,-3.60703 -2.8965,-8.01563 -3.19331,-7.59281 -4.39755,-10.50428 -9.01559,-21.79687 -2.05663,-5.02913 -4.38355,-10.63507 -8.28864,-19.96875 -1.29438,-3.09375 -3.43577,-8.28281 -4.75864,-11.53125 -2.13043,-5.23146 -5.81513,-14.11635 -11.7805,-28.40625 -1.0332,-2.475 -3.96158,-9.5625 -6.50753,-15.75 -2.54594,-6.1875 -5.38072,-12.9827 -6.29952,-15.10045 -0.91879,-2.11775 -2.00955,-4.77556 -2.42392,-5.90625 -0.41436,-1.13069 -2.19149,-5.47299 -3.94917,-9.64955 -1.75769,-4.17656 -4.05674,-9.68203 -5.10901,-12.23438 -1.05227,-2.55234 -2.80221,-6.79098 -3.88876,-9.41921 -1.08654,-2.62822 -2.82786,-6.86806 -3.86959,-9.42187 -1.72839,-4.23715 -3.7666,-9.15085 -11.60905,-27.98704 -1.48129,-3.55781 -4.62294,-11.15156 -6.98144,-16.875 -6.51278,-15.80478 -7.78713,-18.80484 -8.19103,-19.28323 -0.20408,-0.24171 -1.15714,1.53017 -2.11791,3.9375 -0.96077,2.40734 -2.91719,7.16135 -4.3476,10.56448 -1.43041,3.40313 -3.20127,7.70625 -3.93525,9.5625 -0.73398,1.85625 -2.76682,6.79219 -4.51741,10.96875 -5.17658,12.35025 -6.87586,16.457 -12.80124,30.9375 -1.07606,2.62969 -3.5959,8.70469 -5.59965,13.5 -2.00374,4.79531 -5.73179,13.78125 -8.28455,19.96875 -2.55276,6.1875 -5.35253,12.89531 -6.2217,14.90625 -0.86917,2.01094 -2.07961,4.92187 -2.68985,6.46875 -0.61024,1.54687 -2.4275,5.97656 -4.03834,9.84375 -1.61085,3.86719 -3.75942,9.05625 -4.77461,11.53125 -1.01518,2.475 -3.16873,7.66406 -4.78566,11.53125 -1.61692,3.86719 -3.15684,7.59189 -3.42204,8.27713 -0.4607,1.19039 -0.57001,1.20918 -2.45429,0.42187 -2.55349,-1.06691 -2.38659,-1.13828 -2.82689,1.20873 -0.20974,1.11801 -0.98775,3.33285 -1.72891,4.92188 -0.74117,1.58903 -2.53213,5.80008 -3.97992,9.35789 -2.54281,6.24871 -4.93137,12.04489 -8.98232,21.79687 -3.74603,9.01791 -5.80434,13.99896 -8.65846,20.95313 -2.7149,6.61496 -5.1717,12.42016 -5.43631,12.84553 -0.11743,0.18877 -4.89183,-1.70335 -18.20794,-7.21591 -3.86719,-1.60092 -9.05625,-3.74473 -11.53125,-4.76401 -7.09226,-2.9208 -13.55538,-5.61273 -20.25,-8.43424 -3.40313,-1.43428 -8.78203,-3.6431 -11.95313,-4.90848 -3.17109,-1.26537 -5.76562,-2.51223 -5.76562,-2.7708 0,-0.46306 2.69934,-7.18836 7.31332,-18.22084 2.23206,-5.33709 3.91483,-9.40203 8.15004,-19.6875 1.01913,-2.475 3.17473,-7.66406 4.79024,-11.53125 5.85808,-14.02302 8.4339,-20.47691 8.4339,-21.13172 0,-0.36742 -0.38718,-0.98936 -0.86041,-1.3821 -1.11065,-0.92177 -3.90559,0.1968 -3.4511,1.38117 0.33907,0.88362 -1.7115,6.71596 -5.55116,15.7889 -1.4402,3.40312 -3.70589,8.84531 -5.03488,12.09375 -1.32898,3.24844 -4.37279,10.58906 -6.76402,16.3125 -2.39123,5.72344 -5.17322,12.43125 -6.18221,14.90625 -2.09334,5.13484 -4.21411,10.02664 -4.44855,10.26108 -0.0875,0.0875 -2.41303,-0.81208 -5.16778,-1.99912 -5.33408,-2.29849 -10.76964,-4.56807 -17.74933,-7.4111 -3.60974,-1.47035 -4.41769,-2.04271 -5.0138,-3.55183 -1.20665,-3.05479 -6.14218,-15.05308 -8.20897,-19.95604 -1.07972,-2.56135 -1.85873,-4.96604 -1.73115,-5.34375 0.12759,-0.37771 -0.0976,-1.479 -0.50041,-2.44732 l -0.73239,-1.76059 3.21371,-1.41419 c 2.95811,-1.30171 6.961,-2.96975 21.49495,-8.9571 2.93906,-1.21077 7.36875,-3.05768 9.84375,-4.10426 2.475,-1.04657 6.65156,-2.78354 9.28125,-3.85994 2.62969,-1.0764 7.81875,-3.22034 11.53125,-4.76431 3.7125,-1.54398 7.69922,-3.19719 8.85937,-3.6738 1.16016,-0.47662 2.10938,-1.03768 2.10938,-1.24681 0,-0.20914 -0.61716,-1.80408 -1.37146,-3.54433 -0.7543,-1.74025 -2.67355,-6.32815 -4.265,-10.19534 -3.66065,-8.8953 -6.03241,-14.62115 -8.85393,-21.375 -1.22784,-2.93906 -4.30762,-10.40625 -6.84395,-16.59375 -2.53634,-6.1875 -5.47597,-13.275 -6.53252,-15.75 -1.95852,-4.58792 -8.37675,-19.99926 -10.6588,-25.59375 -3.33786,-8.18281 -9.57931,-23.30977 -11.48845,-27.84375 -1.17243,-2.78437 -2.92048,-6.96094 -3.88455,-9.28125 -0.96408,-2.32031 -3.44019,-8.26875 -5.50248,-13.21875 -2.06229,-4.95 -4.63001,-11.15156 -5.70603,-13.78125 -3.29565,-8.0542 -5.55921,-13.529953 -8.02214,-19.40625 -1.29668,-3.09375 -3.43995,-8.282812 -4.76282,-11.53125 -1.32288,-3.248438 -4.09564,-9.95625 -6.16169,-14.90625 -2.06606,-4.95 -4.64752,-11.151563 -5.73659,-13.78125 -1.08907,-2.629687 -2.70417,-6.454834 -3.58911,-8.500326 -0.88494,-2.045492 -2.39525,-5.757952 -3.35625,-8.249912 l -1.74728,-4.530836 -4.61785,1.852426 c -2.53982,1.018835 -9.93348,4.068214 -16.43035,6.776398 -6.49688,2.708184 -13.20469,5.490053 -14.90625,6.181931 -6.97233,2.83504 -23.11114,9.491653 -27.84375,11.484433 -2.78438,1.172427 -6.96094,2.920474 -9.28125,3.884548 -2.32031,0.964075 -8.26875,3.436637 -13.21875,5.494583 -4.95,2.057946 -11.08828,4.59729 -13.64063,5.642987 -6.61781,2.711324 -12.87729,5.295782 -20.95312,8.651268 -3.86719,1.606807 -9.05625,3.751675 -11.53125,4.766373 -2.475,1.014698 -9.81562,4.060693 -16.3125,6.768877 -6.49688,2.708184 -13.20469,5.490053 -14.90625,6.181931 -6.97233,2.83504 -23.11114,9.491649 -27.84375,11.484429 -2.78437,1.17243 -6.96094,2.92048 -9.28125,3.88455 -2.32031,0.96408 -8.26875,3.43664 -13.21875,5.49458 -4.95,2.05795 -11.025,4.55198 -13.5,5.54229 -2.475,0.99032 -5.21432,2.17892 -6.08737,2.64133 l -1.58737,0.84076 2.14987,0.91672 c 1.18243,0.50419 5.31393,2.21182 9.18112,3.79473 3.86719,1.58291 8.42344,3.46835 10.125,4.18987 1.70156,0.72152 5.87812,2.46494 9.28125,3.87427 3.40313,1.40933 10.2375,4.24759 15.1875,6.30725 4.95,2.05965 11.65781,4.83275 14.90625,6.16243 3.24844,1.32969 8.18438,3.35937 10.96875,4.51041 2.78437,1.15103 6.45469,2.66085 8.15625,3.35514 1.70156,0.69428 8.40937,3.47813 14.90625,6.18631 6.49688,2.70818 13.8375,5.75418 16.3125,6.76888 2.475,1.0147 7.66406,3.15956 11.53125,4.76637 3.86719,1.60681 9.05625,3.75167 11.53125,4.76637 2.475,1.0147 9.81562,4.05801 16.3125,6.76291 6.49687,2.7049 13.8375,5.74946 16.3125,6.76568 2.475,1.01622 7.03125,2.90319 10.125,4.19327 3.09375,1.29008 9.54844,3.95706 14.34375,5.92662 4.79531,1.96956 11.12344,4.58005 14.0625,5.80109 2.93906,1.22103 10.53281,4.36468 16.875,6.98586 6.34219,2.62119 12.53553,5.24419 13.76297,5.82888 2.37332,1.13052 2.33972,1.06551 8.6911,16.81307 1.47577,3.65901 3.74431,9.10825 12.52817,30.09375 1.87767,4.48594 4.11794,9.92812 4.97839,12.09375 0.86044,2.16563 2.21974,5.40019 3.02066,7.18791 0.80091,1.78773 1.45621,3.48982 1.45621,3.78243 0,0.67923 -3.26112,2.38518 -3.85634,2.01732 -0.49366,-0.3051 -0.93317,-1.2926 -5.15458,-11.58141 -1.58668,-3.86719 -3.84112,-9.30938 -5.00987,-12.09375 -1.16876,-2.78438 -2.91249,-6.96094 -3.87497,-9.28125 -0.96248,-2.32031 -3.54943,-8.52188 -5.74878,-13.78125 -2.19935,-5.25938 -4.53735,-11.01797 -5.19555,-12.79688 -0.6582,-1.7789 -1.3361,-3.22837 -1.50645,-3.22104 -0.28615,0.0123 -1.65356,3.20155 -7.47075,17.42417 -1.20211,2.93906 -3.03766,7.36875 -4.07901,9.84375 -2.18529,5.19383 -4.65474,11.161 -8.72941,21.09375 -1.58643,3.86719 -3.60426,8.67656 -4.48408,10.6875 -0.87983,2.01094 -1.41218,3.85427 -1.18302,4.0963 0.40487,0.4276 12.11269,5.419 21.06012,8.97857 l 4.42356,1.75984 -3.01731,1.35572 -3.01731,1.35573 5.34375,1.82992 c 4.77844,1.63633 13.49533,5.16347 30.65625,12.40452 3.09375,1.3054 6.58431,2.71674 7.75679,3.13629 2.84777,1.01902 3.36187,1.68272 5.63178,7.27061 4.07896,10.04123 10.14191,24.64643 11.97853,28.85537 1.05278,2.41264 1.91415,4.84982 1.91415,5.41596 0,0.56613 -1.1574,3.78122 -2.57199,7.14463 -1.4146,3.36341 -3.35055,8.01373 -4.3021,10.33404 -2.16788,5.28622 -5.40234,13.01439 -7.84436,18.74267 -1.82647,4.28438 -1.95586,4.43312 -4.96905,5.71241 -5.24525,2.22695 -13.47823,5.65383 -20.25,8.42883 -3.55781,1.45796 -8.52101,3.51489 -11.02934,4.57096 -2.50832,1.05607 -5.12615,1.92013 -5.8174,1.92013 -0.69124,0 -6.23273,-2.05924 -12.31441,-4.57609 -6.08168,-2.51685 -13.46229,-5.56842 -16.40135,-6.78127 -9.01886,-3.72177 -10.94508,-4.58655 -11.59152,-5.20403 -0.34252,-0.32717 -1.53449,-2.87299 -2.64882,-5.65736 -2.44363,-6.10591 -5.60772,-13.78223 -8.81052,-21.375 -1.30501,-3.09375 -3.02004,-7.39687 -3.81116,-9.5625 l -1.43841,-3.9375 1.74441,-4.21875 c 0.95944,-2.32031 2.744,-6.62344 3.96571,-9.5625 6.03251,-14.51244 8.09529,-19.54875 8.63961,-21.09375 0.32699,-0.92812 0.92726,-1.95786 1.33394,-2.2883 0.40667,-0.33044 1.60069,-2.49077 2.65337,-4.80073 1.6416,-3.60225 2.18654,-4.2902 3.82931,-4.83418 1.05343,-0.34884 4.95283,-1.8973 8.66533,-3.44103 3.7125,-1.54373 9.1888,-3.81518 12.16956,-5.04767 7.92413,-3.27649 7.72581,-3.08253 4.58632,-4.4855 -6.24779,-2.79199 -17.7379,-7.44634 -18.38264,-7.44634 -0.38361,0 -1.28228,1.45547 -1.99704,3.23437 -0.71476,1.77891 -2.30294,5.63907 -3.52929,8.57813 -1.22635,2.93906 -2.61682,6.27481 -3.08993,7.41278 -0.67009,1.61175 -1.4589,2.32659 -3.56912,3.23438 -1.4899,0.64094 -2.82751,1.16534 -2.97247,1.16534 -0.33039,0 0.93426,-3.27343 4.99827,-12.9375 1.75636,-4.17656 3.6725,-8.80191 4.2581,-10.27855 l 1.06473,-2.6848 -1.37111,-0.5213 c -0.75411,-0.28671 -3.85607,-1.56499 -6.89324,-2.84061 -5.46288,-2.29444 -10.43608,-4.36547 -19.44402,-8.09724 -2.55234,-1.05737 -7.67812,-3.18832 -11.39062,-4.73543 -3.7125,-1.54711 -10.54688,-4.37676 -15.1875,-6.2881 -4.64063,-1.91134 -8.67036,-3.6188 -8.95497,-3.79434 -0.2846,-0.17555 -0.36628,0.0387 -0.18149,0.47622 1.70641,4.03994 5.48068,13.15302 7.43484,17.95165 1.32288,3.24844 4.09564,9.95625 6.16169,14.90625 2.06606,4.95 4.65033,11.15156 5.74283,13.78125 1.0925,2.62969 2.97738,7.08947 4.18861,9.91063 1.21123,2.82115 2.20224,5.40919 2.20224,5.75118 0,0.34199 -0.75938,1.01449 -1.6875,1.49444 -0.92812,0.47995 -1.6875,1.00864 -1.6875,1.17485 0,0.16622 0.61859,1.61519 1.37465,3.21993 1.74532,3.70448 5.2746,11.87799 6.23899,14.44897 0.40617,1.08281 1.75937,4.43175 3.00713,7.44208 l 2.26864,5.47333 -1.89102,4.65167 c -1.04007,2.55842 -2.95023,7.18292 -4.2448,10.27667 -1.29458,3.09375 -2.90077,7.08024 -3.56931,8.85887 -0.66854,1.77863 -1.48394,3.2341 -1.812,3.23438 -0.78965,6.6e-4 -5.37973,-1.83943 -25.55978,-10.24653 -2.93906,-1.22442 -8.00156,-3.31691 -11.25,-4.64996 -3.24844,-1.33305 -8.4375,-3.48744 -11.53125,-4.78752 -3.09375,-1.30009 -6.76406,-2.80999 -8.15625,-3.35534 -11.08239,-4.34119 -14.54411,-6.15711 -12.77885,-6.70343 0.37681,-0.11661 2.96323,-1.15934 5.7476,-2.31716 13.31846,-5.5382 25.19435,-10.4614 29.53125,-12.24229 7.95583,-3.26696 10.64437,-4.38371 18.5625,-7.71032 4.17656,-1.75469 8.92266,-3.69714 10.54687,-4.31656 1.62422,-0.61942 2.95313,-1.1852 2.95313,-1.25729 0,-0.0721 -1.42084,-3.53438 -3.15742,-7.69396 -1.73659,-4.15959 -3.9845,-9.58789 -4.99538,-12.06289 -1.01087,-2.475 -3.7968,-9.18281 -6.19095,-14.90625 -2.39415,-5.72344 -5.18043,-12.43125 -6.19174,-14.90625 -3.67844,-9.00239 -6.94512,-16.69936 -7.1923,-16.94654 -0.13914,-0.13914 -4.27215,1.43244 -9.18447,3.49239 -4.91232,2.05995 -11.08305,4.62578 -13.71274,5.70184 -6.03584,2.46985 -11.88841,4.88762 -20.8125,8.59792 -3.86719,1.60783 -8.42344,3.49761 -10.125,4.19951 -1.70156,0.70191 -6.25781,2.60226 -10.125,4.22301 -6.7752,2.8395 -11.02115,4.59525 -20.95313,8.66439 -2.55234,1.04569 -8.56406,3.54069 -13.35937,5.54444 -4.79531,2.00374 -13.78125,5.71862 -19.96875,8.25529 -6.1875,2.53667 -12.89531,5.34706 -14.90625,6.24532 -2.01094,0.89825 -4.66875,2.0039 -5.90625,2.457 -1.2375,0.45309 -4.65469,1.83428 -7.59375,3.06931 -12.907472,5.42386 -21.116539,8.84189 -29.25,12.1789 -4.795313,1.96743 -11.25,4.63266 -14.34375,5.92274 -3.09375,1.29008 -7.65,3.18602 -10.125,4.21319 -2.475,1.02718 -7.03125,2.92664 -10.125,4.22103 -6.649867,2.78221 -16.133863,6.67564 -22.732371,9.33223 -2.602804,1.0479 -4.839505,2.01241 -4.970447,2.14335 -0.227542,0.22754 1.324706,4.0914 9.735912,24.23468 2.066967,4.95 4.583124,11.025 5.59146,13.5 3.243488,7.96126 8.723734,21.23086 10.918496,26.4375 1.1737,2.78437 2.922788,6.96094 3.886862,9.28125 0.964075,2.32031 3.440191,8.26875 5.502481,13.21875 2.06229,4.95 4.580316,11.025 5.595614,13.5 4.569317,11.13867 5.924039,14.41821 8.132553,19.6875 1.296681,3.09375 3.439953,8.28281 4.762825,11.53125 1.322872,3.24844 4.091986,9.95625 6.153587,14.90625 5.60904,13.46757 9.846822,23.66809 13.437141,32.34375 1.088265,2.62969 2.982855,7.18594 4.210201,10.125 1.227346,2.93906 4.323816,10.40625 6.881046,16.59375 10.57285,25.58217 11.89272,28.70683 12.30214,29.12419 0.23561,0.24018 2.02308,-3.43013 3.97216,-8.15625 4.43997,-10.76599 7.43584,-18.00451 9.84224,-23.78044 1.03114,-2.475 3.96352,-9.5625 6.51639,-15.75 2.55287,-6.1875 6.27771,-15.17344 8.27741,-19.96875 1.99971,-4.79531 4.72376,-11.37656 6.05344,-14.625 2.1653,-5.28984 3.36925,-8.21092 7.88257,-19.125 0.70365,-1.70156 2.59816,-6.25781 4.21003,-10.125 1.61187,-3.86719 3.42996,-8.29688 4.0402,-9.84375 0.61024,-1.54688 1.82068,-4.45781 2.68985,-6.46875 0.86917,-2.01094 3.66894,-8.71875 6.2217,-14.90625 2.55276,-6.1875 6.28081,-15.17344 8.28455,-19.96875 2.00375,-4.79531 4.47108,-10.74375 5.48297,-13.21875 4.48925,-10.98038 7.07551,-17.26351 9.26142,-22.5 1.29145,-3.09375 3.6928,-8.91563 5.33633,-12.9375 7.76557,-19.00306 9.94866,-23.99618 10.38902,-23.76155 1.64414,0.87602 7.84362,3.64035 11.00722,4.90808 2.16562,0.86782 7.10156,2.89486 10.96875,4.50452 3.86719,1.60967 9.05625,3.75687 11.53125,4.77157 2.475,1.0147 9.81562,4.0579 16.3125,6.76267 6.49687,2.70478 13.71094,5.68021 16.03125,6.61208 2.32031,0.93187 4.45282,1.90775 4.7389,2.16862 0.31032,0.28297 -0.68417,3.37328 -2.46518,7.66041 -4.37474,10.53054 -6.30162,15.15988 -10.48331,25.1861 -4.04083,9.6885 -6.46942,15.59122 -9.42978,22.91921 -1.03169,2.55381 -2.83115,6.85953 -3.9988,9.56826 l -2.12299,4.92497 1.81619,4.35628 c 0.9989,2.39595 3.54281,8.53284 5.65313,13.63753 2.11032,5.10469 4.8903,11.8125 6.17772,14.90625 1.28743,3.09375 3.49007,8.40937 4.89478,11.8125 1.4047,3.40312 3.54725,8.59219 4.76122,11.53125 1.21397,2.93906 2.97324,7.20902 3.9095,9.48879 0.93626,2.27978 1.49193,4.3478 1.23483,4.59562 -0.40011,0.38567 -9.35958,4.19964 -20.43621,8.69953 -1.70156,0.69126 -8.40938,3.46577 -14.90625,6.16558 -6.49688,2.6998 -14.47031,5.99937 -17.71875,7.33236 -10.0978,4.14362 -15.3121,6.29929 -19.6875,8.1391 -4.89726,2.05925 -14.63229,6.08772 -21.09375,8.72884 -2.475,1.01165 -8.29688,3.4176 -12.9375,5.34654 -4.64063,1.92895 -10.71563,4.45368 -13.5,5.61052 -2.78437,1.15684 -10.125,4.18744 -16.3125,6.73465 -15.39158,6.33628 -19.11646,7.90018 -27.45194,11.52585 -3.96106,1.72294 -7.2717,3.13262 -7.35697,3.13262 -0.0853,0 -0.69298,-1.20234 -1.35046,-2.67188 z M 27.5625,356.73491 c 17.977428,-7.47514 23.770273,-9.88728 27.28125,-11.35991 7.08908,-2.97341 21.842883,-9.09634 26.4375,-10.97176 2.475,-1.01023 9.815625,-4.04517 16.3125,-6.74431 6.49688,-2.69914 13.20469,-5.47935 14.90625,-6.17826 1.70156,-0.69891 6.25781,-2.5968 10.125,-4.21755 6.69884,-2.80749 10.98927,-4.58011 21.09375,-8.71499 6.29908,-2.57767 15.77435,-6.51462 23.0625,-9.5824 3.40313,-1.43246 10.11094,-4.21378 14.90625,-6.18069 4.79531,-1.96692 11.25,-4.63044 14.34375,-5.91895 5.24723,-2.18541 10.05596,-4.18279 23.34375,-9.69619 2.93906,-1.21949 7.36875,-3.05022 9.84375,-4.06829 2.475,-1.01808 6.90469,-2.85168 9.84375,-4.07467 2.93906,-1.22299 8.58304,-3.56226 12.54218,-5.19838 l 7.19843,-2.97476 3.48907,1.45595 c 9.88738,4.1259 22.14194,9.20223 27.39532,11.34825 3.24844,1.327 8.4375,3.47286 11.53125,4.76858 3.09375,1.29572 7.77656,3.24793 10.40625,4.33823 2.62969,1.09031 7.18594,2.98374 10.125,4.20764 2.93906,1.2239 5.74333,2.35365 6.23171,2.51055 0.67045,0.2154 1.24422,-0.65468 2.34235,-3.55198 0.79991,-2.1105 2.52172,-6.36852 3.82625,-9.46227 1.30453,-3.09375 3.20018,-7.65 4.21255,-10.125 1.01237,-2.475 3.15533,-7.66406 4.76214,-11.53125 1.60681,-3.86719 3.75068,-9.05625 4.76417,-11.53125 1.01349,-2.475 3.26709,-7.9033 5.00802,-12.06289 1.74092,-4.15958 3.16531,-7.7134 3.16531,-7.89737 0,-0.34424 -2.39912,-1.38111 -20.25,-8.75178 -5.72344,-2.36322 -13.44375,-5.56013 -17.15625,-7.10424 -3.7125,-1.54411 -8.90156,-3.68816 -11.53125,-4.76456 -2.62969,-1.0764 -6.80625,-2.80826 -9.28125,-3.84858 -4.63267,-1.94726 -5.50417,-2.3087 -26.4375,-10.96467 -16.89091,-6.98443 -20.02008,-8.28356 -25.875,-10.74249 -2.78437,-1.16938 -10.125,-4.20361 -16.3125,-6.74274 -6.1875,-2.53913 -13.52813,-5.56595 -16.3125,-6.72625 -18.47695,-7.69972 -22.41746,-9.33549 -26.4375,-10.97467 -2.475,-1.00919 -7.66406,-3.14771 -11.53125,-4.75228 -3.86719,-1.60456 -9.18281,-3.8044 -11.8125,-4.88853 -5.71681,-2.35685 -7.16586,-2.95719 -24.1875,-10.02084 -15.36911,-6.37788 -21.05993,-8.72224 -21.17935,-8.72493 -0.0471,-0.001 -0.3434,0.69416 -0.6585,1.54495 -0.31509,0.85078 -1.63176,4.07812 -2.92591,7.17187 -1.29416,3.09375 -3.43874,8.28281 -4.76574,11.53125 -3.44418,8.43123 -9.542699,23.13531 -11.781494,28.40625 -1.051239,2.475 -3.484492,8.29687 -5.407229,12.9375 -3.284176,7.92653 -4.751401,11.49697 -9.246085,22.5 -1.011025,2.475 -3.477654,8.42344 -5.481398,13.21875 -2.003745,4.79531 -5.735451,13.78125 -8.292682,19.96875 -2.557231,6.1875 -5.653702,13.65469 -6.881048,16.59375 -1.227346,2.93906 -3.067577,7.36875 -4.089402,9.84375 -1.021824,2.475 -2.757344,6.65156 -3.85671,9.28125 -1.099366,2.62969 -3.933997,9.46406 -6.299179,15.1875 -2.365183,5.72344 -5.512301,13.31719 -6.993597,16.875 -7.757564,18.63231 -9.874838,23.7351 -11.553054,27.84375 -1.010937,2.475 -2.898054,7.03125 -4.193594,10.125 -5.188599,12.39038 -5.138544,12.24422 -4.080228,11.91436 0.531548,-0.16568 3.371137,-1.30112 6.3102,-2.5232 z m 503.23648,-69.15679 c 0.47661,-1.16015 2.12982,-5.14687 3.6738,-8.85937 1.54397,-3.7125 3.67235,-8.83828 4.72972,-11.39063 1.80399,-4.35455 3.35691,-8.09435 7.88309,-18.98437 1.02868,-2.475 3.55709,-8.55 5.61869,-13.5 2.0616,-4.95 4.83071,-11.65781 6.15359,-14.90625 1.32287,-3.24844 3.46614,-8.4375 4.76282,-11.53125 1.29668,-3.09375 3.21725,-7.71448 4.26792,-10.26829 1.05067,-2.55381 2.77446,-6.73037 3.83065,-9.28125 1.05618,-2.55088 2.80074,-6.78952 3.8768,-9.41921 1.07606,-2.62969 3.5959,-8.70469 5.59965,-13.5 2.00374,-4.79531 5.73315,-13.78125 8.28758,-19.96875 2.55443,-6.1875 5.59861,-13.52813 6.76485,-16.3125 3.20417,-7.64987 3.1816,-7.20811 0.4232,-8.28187 -1.31455,-0.51171 -5.17447,-2.09967 -8.57759,-3.5288 -3.40312,-1.42913 -8.84531,-3.69991 -12.09375,-5.04617 -3.24844,-1.34627 -8.4375,-3.51015 -11.53125,-4.80863 -3.09375,-1.29848 -7.39688,-3.05911 -9.5625,-3.91253 -3.47985,-1.3713 -14.0912,-5.760715 -25.875,-10.70325 -6.82311,-2.861849 -21.74436,-9.055932 -26.71875,-11.091439 -2.62969,-1.076062 -6.80625,-2.785233 -9.28125,-3.798159 -2.475,-1.012926 -7.66406,-3.166912 -11.53125,-4.786636 -3.86719,-1.619723 -9.11953,-3.803622 -11.67188,-4.853108 -2.55234,-1.049487 -6.79098,-2.79715 -9.41921,-3.883695 -2.62822,-1.086546 -6.86806,-2.828054 -9.42187,-3.870018 -2.55381,-1.041964 -8.56673,-3.533907 -13.36204,-5.537651 -4.79531,-2.003745 -13.78125,-5.735451 -19.96875,-8.292682 -6.1875,-2.557231 -13.52813,-5.602181 -16.3125,-6.766556 -2.78438,-1.164376 -8.60625,-3.583361 -12.9375,-5.375524 -7.1801,-2.970946 -16.3762,-6.788683 -21.82021,-9.058608 -1.17299,-0.489088 -2.24513,-0.776834 -2.38253,-0.639435 -0.1374,0.1374 0.72248,2.510492 1.91084,5.273539 1.18835,2.763047 2.94592,6.922159 3.90569,9.242472 0.95978,2.320312 3.43792,8.26875 5.50699,13.21875 2.06907,4.95 4.58614,11.025 5.5935,13.5 2.59276,6.37022 5.39833,13.160988 8.13378,19.6875 1.29668,3.09375 3.44367,8.282812 4.77109,11.53125 1.32741,3.24844 4.36994,10.58906 6.76117,16.3125 2.39123,5.72344 5.1789,12.43125 6.19482,14.90625 1.01593,2.475 3.1618,7.66406 4.76861,11.53125 1.60681,3.86719 3.75268,9.05625 4.76861,11.53125 1.01592,2.475 3.80599,9.18281 6.20014,14.90625 2.39415,5.72344 5.1764,12.43125 6.18277,14.90625 1.00637,2.475 3.15829,7.66406 4.78205,11.53125 1.62376,3.86719 3.44883,8.29687 4.05572,9.84375 0.60689,1.54687 1.81458,4.45781 2.68375,6.46875 0.86917,2.01094 3.66894,8.71875 6.2217,14.90625 2.55276,6.1875 6.27798,15.17344 8.27826,19.96875 2.00029,4.79531 4.35687,10.46611 5.23685,12.60178 1.82093,4.41931 1.7277,4.31007 4.7464,5.56145 1.2375,0.513 6.3,2.61849 11.25,4.67887 4.95,2.06039 11.15156,4.62655 13.78125,5.70257 7.7646,3.17715 13.42452,5.51534 19.40625,8.01701 3.09375,1.29386 8.40931,3.49147 11.81236,4.88357 3.40305,1.3921 6.56711,2.75371 7.03125,3.02581 1.39054,0.8152 1.70583,0.6244 2.61162,-1.58044 z m 68.26352,316.20312 c -2.62969,-1.10587 -6.93281,-2.89443 -9.5625,-3.97458 -6.9082,-2.83756 -13.02897,-5.36786 -19.125,-7.9062 -2.93906,-1.22381 -8.12813,-3.38075 -11.53125,-4.7932 -3.40312,-1.41246 -8.71875,-3.6305 -11.8125,-4.92898 -3.09375,-1.29848 -7.39688,-3.05911 -9.5625,-3.91253 -3.47985,-1.3713 -14.0912,-5.76071 -25.875,-10.70325 -6.20858,-2.60409 -21.49598,-8.95384 -26.4375,-10.98103 -10.26088,-4.20937 -14.44157,-5.94235 -21.65625,-8.97692 -4.17656,-1.75671 -7.97344,-3.34132 -8.4375,-3.52135 -1.13993,-0.44224 -17.18489,-7.12346 -19.82813,-8.25655 -1.16015,-0.49734 -2.10696,-1.09069 -2.10402,-1.31857 0.003,-0.22788 2.0597,-5.35027 4.57057,-11.38308 2.51087,-6.03281 5.39488,-12.99375 6.40891,-15.46875 1.01404,-2.475 3.15836,-7.66406 4.76517,-11.53125 1.60681,-3.86719 3.75175,-9.05625 4.76654,-11.53125 5.15428,-12.5709 7.25248,-17.49559 7.69828,-18.06866 0.27004,-0.34714 2.32202,-1.41482 4.55995,-2.37264 4.4365,-1.89877 19.31948,-8.09844 26.7096,-11.12618 6.61782,-2.71133 12.8773,-5.29578 20.95313,-8.65127 3.86719,-1.60681 9.05625,-3.75167 11.53125,-4.76637 2.475,-1.0147 9.81563,-4.0607 16.3125,-6.76888 6.49687,-2.70818 13.20469,-5.49005 14.90625,-6.18193 6.97233,-2.83504 23.11114,-9.49165 27.84375,-11.48443 2.78438,-1.17243 6.96094,-2.92048 9.28125,-3.88455 2.32031,-0.96408 8.26875,-3.43664 13.21875,-5.49458 4.95,-2.05795 11.08828,-4.5973 13.64062,-5.64299 6.61782,-2.71133 12.8773,-5.29578 20.95313,-8.65127 3.86719,-1.60681 9.05625,-3.75167 11.53125,-4.76637 2.475,-1.0147 9.81563,-4.06147 16.3125,-6.7706 6.49687,-2.70914 12.95156,-5.37323 14.34375,-5.92021 2.80905,-1.10366 10.99891,-4.50965 17.36332,-7.22105 4.79407,-2.0424 4.70042,-2.58274 1.05998,6.11573 -1.35952,3.24844 -3.93826,9.45 -5.73054,13.78125 -1.79228,4.33125 -4.21049,10.15312 -5.37381,12.9375 -1.16331,2.78437 -3.26423,7.84687 -4.66871,11.25 -7.02194,17.01456 -10.79099,26.1125 -14.21483,34.3125 -3.6818,8.81779 -5.47715,13.16792 -9.40209,22.78125 -1.07366,2.62969 -3.27733,7.94531 -4.89705,11.8125 -1.61973,3.86719 -3.77526,9.05625 -4.79007,11.53125 -1.01482,2.475 -2.75942,6.71484 -3.87691,9.42187 -1.11748,2.70704 -2.89046,7.01016 -3.93995,9.5625 -1.04948,2.55235 -3.23338,7.80469 -4.85311,11.67188 -1.61972,3.86719 -3.76834,9.05625 -4.77471,11.53125 -1.00637,2.475 -3.78622,9.18281 -6.17745,14.90625 -2.39123,5.72344 -5.43376,13.06406 -6.76117,16.3125 -1.32742,3.24844 -3.47441,8.4375 -4.77109,11.53125 -2.92538,6.97966 -5.31726,12.77783 -8.6499,20.96826 -3.14122,7.72001 -3.58152,8.56581 -4.45233,8.5527 -0.37583,-0.006 -2.83489,-0.9151 -5.46458,-2.02097 z M 288.02767,530.85937 c -1.10219,-2.54813 -4.32509,-10.29587 -12.75236,-30.65625 -1.12046,-2.70703 -2.87863,-6.94687 -3.90705,-9.42187 -8.54417,-20.56238 -10.23876,-24.78571 -10.06075,-25.07374 0.11196,-0.18116 1.92373,-1.0435 4.02616,-1.91631 11.29799,-4.69029 14.90891,-6.18537 25.19758,-10.43291 6.1875,-2.55443 15.17344,-6.28384 19.96875,-8.28758 14.3647,-6.00236 18.21831,-7.45319 18.63823,-7.017 0.32812,0.34084 7.02565,16.28138 12.58215,29.94629 0.94735,2.32979 13.76089,33.30266 15.25466,36.87355 0.13627,0.32577 -1.21565,1.18871 -3.00426,1.91765 -1.78862,0.72895 -7.17547,2.96075 -11.97078,4.95956 -4.79531,1.99881 -10.87031,4.51462 -13.5,5.59068 -10.0805,4.12491 -14.06771,5.76753 -22.78125,9.38521 -15.19454,6.30847 -15.73631,6.52663 -16.2035,6.52497 -0.24943,-8.9e-4 -0.91884,-1.0774 -1.48758,-2.39225 z m 133.00358,-0.80497 c -4.02187,-1.70536 -9.3375,-3.92987 -11.8125,-4.94334 -4.89102,-2.0028 -15.5931,-6.41458 -20.53125,-8.46372 -7.042,-2.92216 -14.16562,-5.86562 -20.4282,-8.44089 -5.08258,-2.09003 -6.58221,-2.93977 -6.37186,-3.61051 0.1513,-0.48246 1.45671,-3.66157 2.9009,-7.06469 1.4442,-3.40313 3.46377,-8.2125 4.48795,-10.6875 1.02417,-2.475 4.06781,-9.81563 6.76365,-16.3125 2.69583,-6.49688 5.73302,-13.8375 6.7493,-16.3125 5.23578,-12.75086 6.52514,-15.75813 6.92975,-16.16274 0.24325,-0.24325 2.95833,0.60172 6.03352,1.87771 8.57537,3.55819 14.71021,6.07624 19.67906,8.07728 2.48893,1.00233 6.03268,2.4743 7.875,3.27104 1.84232,0.79674 5.50124,2.33934 8.13093,3.42799 21.64845,8.96214 25.63882,10.62502 25.96193,10.81898 0.36371,0.21833 -1.12451,4.16021 -5.71111,15.12724 -2.171,5.19108 -3.60652,8.64365 -9.70592,23.34375 -2.75346,6.63609 -5.46938,13.22056 -7.94656,19.26562 -3.43277,8.37703 -4.23683,9.98497 -4.96898,9.93691 -0.39771,-0.0261 -4.01374,-1.44276 -8.03561,-3.14813 z m -62.95238,-31.18054 c -0.53894,-1.35719 -2.19502,-5.37855 -3.68018,-8.93636 -5.83379,-13.97533 -9.80269,-23.54227 -11.55115,-27.84375 -1.00604,-2.475 -2.97626,-7.28438 -4.37827,-10.6875 -1.40202,-3.40313 -3.36133,-8.17123 -4.35403,-10.59579 -0.9927,-2.42456 -1.58646,-4.60485 -1.31945,-4.8451 0.267,-0.24025 1.24484,-0.70228 2.17296,-1.02672 0.92812,-0.32445 4.47187,-1.76828 7.875,-3.20852 11.77407,-4.98289 15.61447,-6.48012 16.62158,-6.48012 0.91869,0 5.50559,1.82676 21.49609,8.56095 6.29852,2.65254 6.04775,1.72977 2.64155,9.7203 -1.86845,4.38314 -7.47924,17.9505 -11.51481,27.84375 -0.69408,1.70156 -2.94429,7.14375 -5.00045,12.09375 -2.05616,4.95 -4.38441,10.55951 -5.17387,12.46559 -0.78947,1.90607 -1.75482,3.90243 -2.14524,4.43636 -0.63263,0.86517 -0.81643,0.70235 -1.68973,-1.49684 z M 262.125,461.09399 c 0,-0.0858 1.1601,-2.93346 2.57799,-6.32812 1.41789,-3.39467 4.18728,-10.09556 6.15418,-14.89087 1.96691,-4.79531 4.63436,-11.25 5.92766,-14.34375 4.4164,-10.56458 7.94782,-19.12173 9.84773,-23.86245 1.04422,-2.60559 2.15144,-4.9903 2.46049,-5.29935 0.37421,-0.37421 2.11749,0.11424 5.2188,1.46228 7.09302,3.08307 15.49935,6.57431 18.83439,7.8221 3.28787,1.23015 3.60622,1.65841 6.30492,8.48188 0.88818,2.24567 3.03438,7.48131 4.76935,11.63474 1.73497,4.15344 3.15119,7.82375 3.14715,8.15625 -0.004,0.3325 -2.09232,1.46709 -4.64063,2.52131 -8.88867,3.67718 -14.81693,6.13534 -23.19578,9.61813 -4.64063,1.92894 -10.52578,4.36255 -13.07813,5.40802 -26.03992,10.6662 -24.32812,9.98932 -24.32812,9.61983 z m 189,-1.89041 c -5.42425,-2.26617 -11.9167,-4.94944 -18.70313,-7.72985 -2.55234,-1.04569 -8.69062,-3.58686 -13.64062,-5.64704 -11.14064,-4.63671 -16.66688,-6.92858 -22.63328,-9.38662 -2.54831,-1.04985 -4.63659,-2.23813 -4.64063,-2.64063 -0.004,-0.40249 0.97034,-3.0603 2.16528,-5.90625 1.19494,-2.84594 3.5193,-8.46507 5.16525,-12.48694 1.64594,-4.02187 3.26279,-7.61851 3.593,-7.99253 0.33021,-0.37402 5.15663,-2.56233 10.72538,-4.86292 5.56875,-2.3006 11.46583,-4.75438 13.10462,-5.45285 1.76977,-0.75431 3.18427,-1.06374 3.48363,-0.76208 0.2772,0.27933 1.63579,3.29225 3.01909,6.69538 1.3833,3.40312 3.94988,9.60469 5.70351,13.78125 1.75363,4.17656 3.52727,8.47969 3.94142,9.5625 0.41415,1.08281 3.19413,7.79063 6.17775,14.90625 6.82582,16.27894 8.25962,19.97494 7.73702,19.94431 -0.22937,-0.0134 -2.5686,-0.92333 -5.19829,-2.02198 z M 328.49645,427.31803 c -1.31879,-3.14835 -3.4064,-8.12897 -4.63915,-11.06803 -1.23274,-2.93906 -2.36484,-5.66016 -2.51576,-6.04688 -0.45842,-1.17463 1.15614,-0.8051 6.38431,1.4612 2.74609,1.19038 6.89134,2.94519 9.21165,3.89958 11.7931,4.85072 16.94477,7.09392 17.18522,7.48298 0.1461,0.23639 -1.06628,0.93772 -2.69417,1.55851 -1.62789,0.6208 -6.37699,2.55773 -10.55355,4.30429 -4.17656,1.74657 -8.13083,3.39091 -8.78726,3.65411 -1.09567,0.4393 -1.39006,0.009 -3.59129,-5.24576 z m 56.6363,4.62652 c -0.99893,-0.59218 -11.78402,-5.0625 -17.67963,-7.32806 -1.62421,-0.62415 -2.95312,-1.31516 -2.95312,-1.53557 0,-0.22042 1.07578,-0.81952 2.39062,-1.33134 2.31474,-0.90104 5.69196,-2.30117 21.84157,-9.05511 7.88049,-3.2957 9.29,-3.69588 8.77512,-2.49135 -0.98189,2.29703 -5.34075,12.71191 -7.12143,17.01563 -2.17137,5.24799 -3.04558,6.03444 -5.25313,4.7258 z M 307.6875,399.86027 c -12.36406,-5.26265 -15.81507,-6.67277 -16.33033,-6.67277 -1.03089,0 -0.5319,-1.55241 3.95533,-12.30553 2.475,-5.93105 4.5,-11.03083 4.5,-11.33285 0,-1.9851 1.43234,0.53709 4.39991,7.74775 2.72015,6.60946 8.3805,20.23403 10.04875,24.1875 0.47758,1.13179 -0.89662,0.79227 -6.57366,-1.6241 z m 97.80207,-0.34465 c 0.9969,-2.54285 5.62365,-13.67847 10.21758,-24.59158 1.16798,-2.77459 2.36986,-5.12679 2.67084,-5.22712 0.30098,-0.10033 1.44956,2.04323 2.55241,4.76346 1.10284,2.72023 3.15873,7.70936 4.56864,11.08696 2.60073,6.23038 2.97785,7.64016 2.04372,7.64016 -0.47335,0 -10.85986,4.24299 -18.6756,7.62916 -4.39214,1.9029 -4.60197,1.82207 -3.37759,-1.30104 z m 24.74796,-11.25 c -0.63799,-1.46953 -1.99149,-4.69687 -3.00777,-7.17187 -1.01628,-2.475 -3.01801,-7.33599 -4.44828,-10.8022 -2.49952,-6.05749 -2.56854,-6.3742 -1.77733,-8.15625 0.45275,-1.01973 2.1175,-5.01811 3.69944,-8.8853 4.631,-11.32084 6.37573,-15.44171 6.72319,-15.87952 0.34021,-0.42866 0.80077,-0.25065 19.97947,7.72207 6.49687,2.7008 14.47031,5.9956 17.71875,7.32179 3.24844,1.32619 8.4375,3.47451 11.53125,4.77406 3.09375,1.29955 7.47813,3.09732 9.74306,3.99504 2.26494,0.89772 4.651,1.91745 5.30237,2.26605 1.63401,0.87449 2.67274,0.37049 -19.12356,9.27884 -13.08797,5.34918 -19.64847,8.06774 -37.90303,15.70635 -3.28964,1.37655 -6.27285,2.50282 -6.62937,2.50282 -0.35651,0 -1.17019,-1.20234 -1.80819,-2.67188 z M 299.17109,356.48437 c -0.50258,-1.31484 -2.35245,-5.80781 -4.11082,-9.98437 -1.75838,-4.17656 -3.78801,-9.22463 -4.51031,-11.21793 l -1.31326,-3.62419 7.95977,-3.28894 c 4.37788,-1.80892 10.02868,-4.16476 12.55734,-5.23519 5.46578,-2.31379 6.02468,-2.38322 5.4785,-0.68063 -0.2233,0.6961 -0.58079,2.03246 -0.79444,2.9697 -0.21364,0.93723 -1.04208,3.21536 -1.84098,5.0625 -0.7989,1.84713 -2.33609,5.50999 -3.41597,8.13968 -1.07988,2.62969 -3.21568,7.81875 -4.74622,11.53125 -1.53054,3.7125 -2.9356,7.19297 -3.12235,7.73437 -0.54072,1.56762 -1.15999,1.16092 -2.14126,-1.40625 z m 116.27751,-3.9375 c -1.4572,-3.48046 -3.42927,-8.22656 -4.38238,-10.54687 -0.9531,-2.32031 -2.72922,-6.5459 -3.94692,-9.39019 -1.2177,-2.84429 -2.12941,-5.52778 -2.02602,-5.9633 0.14436,-0.60815 1.44433,-0.25663 5.60326,1.51519 2.97841,1.26888 8.10419,3.42213 11.39062,4.78501 3.28644,1.36288 5.97534,2.72341 5.97534,3.02341 0,0.3 -0.61524,1.96929 -1.36721,3.70954 -1.44365,3.341 -5.04419,12.03311 -6.84365,16.52136 -0.58872,1.46837 -1.22411,2.67071 -1.41199,2.67187 -0.18788,0.001 -1.53385,-2.84555 -2.99105,-6.32602 z m -20.61627,-34.44228 c -0.7969,-0.43333 -4.34065,-1.97254 -7.875,-3.42046 -3.53434,-1.44793 -8.45108,-3.47303 -10.92608,-4.50022 -2.475,-1.02719 -7.15147,-2.95832 -10.39215,-4.29139 -3.24068,-1.33307 -5.89849,-2.65963 -5.90625,-2.94791 -0.0134,-0.49947 5.02964,-2.73761 17.4234,-7.73257 3.09375,-1.24685 6.31607,-2.62416 7.1607,-3.06069 1.48215,-0.76601 1.56587,-0.72963 2.4006,1.04311 0.47569,1.01023 1.23429,2.4696 1.68578,3.24304 0.45148,0.77344 2.10796,4.57031 3.68107,8.4375 1.5731,3.86719 3.47734,8.45509 4.23164,10.19534 0.7543,1.74025 1.37146,3.32228 1.37146,3.51562 0,0.57886 -1.31223,0.35762 -2.85517,-0.48137 z" id="path2" /></svg>