<?xml version="1.0" encoding="UTF-8" standalone="no"?>
<!-- Created with Inkscape (http://www.inkscape.org/) -->

<svg viewBox="0 0 400 400" version="1.1" id="svg-tess-logo" xml:space="preserve"
    xmlns="http://www.w3.org/2000/svg"
    xmlns:svg="http://www.w3.org/2000/svg"
    xmlns:rdf="http://www.w3.org/1999/02/22-rdf-syntax-ns#"
    xmlns:cc="http://creativecommons.org/ns#">
    <path id="obj1" d="M 270.34271,21.411194 195.09271,64.856507 195.09857,64.866272 H 195.09076 V 151.23737 A 49.079754,49.079754 0 0 0 150.96185,200.01666 49.079754,49.079754 0 0 0 155.52045,220.41315 L 86.157164,260.46002 15.705992,219.78424 10.959899,228.0069 86.209899,271.45221 86.233336,271.41119 86.250914,271.44245 169.03607,223.64557 164.72943,216.18268 A 39.015415,39.015415 0 0 1 161.02631,200.01666 39.015415,39.015415 0 0 1 200.04193,161.00104 39.015415,39.015415 0 0 1 210.84662,162.54401 V 203.53229 L 189.00873,182.67291 V 182.63776 H 188.97162 L 188.9599,182.62604 V 182.63776 H 179.51654 V 244.32135 L 179.45795,244.45026 A 49.079754,49.079754 0 0 0 200.04193,249.09674 49.079754,49.079754 0 0 0 240.02826,228.46002 L 309.42279,268.52643 V 349.9444 H 318.91498 V 263.06354 L 318.92279,263.04987 244.76459,220.23346 A 49.079754,49.079754 0 0 0 249.12201,200.01666 49.079754,49.079754 0 0 0 242.54388,175.73346 L 233.92084,180.69635 A 39.015415,39.015415 0 0 1 239.05755,200.01666 39.015415,39.015415 0 0 1 200.04193,239.03229 39.015415,39.015415 0 0 1 189.00873,237.28034 V 196.76276 L 210.84662,217.92682 V 217.99713 H 210.91888 L 210.92474,218.00299 V 217.99713 H 220.34076 V 155.28424 H 219.87982 A 49.079754,49.079754 0 0 0 204.58295,151.20807 V 70.338928 L 275.08881,29.631897 Z" />
</svg>
